<svg xmlns="http://www.w3.org/2000/svg" viewBox="57.995 0.866 3.419 1.847" width="3.419" height="1.847">
    <defs>
        <style>
            .cls-1{fill:#6a4e62;}.cls-2{fill:#eac3a7;}.cls-3{fill:#e7a96c;}.cls-4,.cls-5{fill:#fff;}.cls-6{fill:#ed1c24;}.cls-7{fill:#fbb040;}.cls-8{fill:#efe3ce;}.cls-9{fill:#8ab7d6;}.cls-10{fill:#9fa3a4;}.cls-11{fill:#939598;}.cls-12{fill:#bcbec0;}.cls-13{fill:#bed9ea;}.cls-14{fill:#be1e2d;}.cls-15{fill:#d1d3d4;}.cls-16{fill:#d5773b;}.cls-17{fill:#dd5633;}.cls-18{fill:#e1f4ff;}.cls-19{fill:#a7b6c3;}.cls-20{fill:#184137;}.cls-21{fill:#234968;}.cls-22{fill:#41586d;}.cls-23{fill:#0f181b;}.cls-24{fill:#58906b;}.cls-25{fill:#316956;}.cls-26{fill:#567591;}.cls-27{fill:#608db7;}.cls-28{fill:#4f6d86;}.cls-29{fill:#7b92a4;}.cls-5,.cls-30{stroke:#58595b;stroke-miterlimit:10;stroke-width:.2px;}.cls-30{fill:none;stroke-linecap:round;}</style>
    </defs>
    <g>
        <path
            d="m60.4976,1.2081c.035-.0676.0519-.1559.1037-.1879.0842-.0521.194-.1001.2881-.0922.3659.0306.4876.3067.5195.6204.0528.5192-.3477.6814-.6867.8757-.201.1152-.4348.1809-.6611.2414-.1498.04-.3125.038-.4698.0429-.4333.0134-.8632.0081-1.2345-.2694-.2583-.1931-.373-.4408-.3613-.7686.01-.2799.0917-.5228.3136-.6809.2615-.1864.6121-.1813.8733.1458.0933.1169.1531.11.2504.0097.2405-.2479.5107-.3029.7983-.1587.0734.0368.1222.1217.1849.1818.0169.0162.0436.0221.0816.0402Zm-1.1717.2985c-.0346-.031-.1027-.0621-.1154-.1084-.0932-.338-.5499-.5732-.8519-.2539-.154.1628-.2775.3596-.206.6173.0398.1436.2264.2374.1433.4229-.0038.0086.0325.0361.0512.0537.2337.2201.5195.3294.8321.345.344.0172.6842-.0067,1.022-.1117.3513-.1092.6823-.2261.931-.5181.1785-.2096.2038-.5741.0184-.7669-.1648-.1714-.37-.1491-.4599-.0286-.0508.0681-.0886.1458-.1367.2161-.0302.044-.0688.0822-.1036.123-.0365-.0441-.0746-.0871-.109-.1328-.018-.024-.0323-.0517-.0439-.0795-.1119-.2686-.4545-.3389-.6603-.1299-.1071.1087-.2029.2285-.3115.3519Z"></path>
        <path class="cls-4"
            d="m59.3259,1.5066c.1086-.1235.2044-.2432.3115-.3519.2058-.2089.5484-.1387.6603.1299.0116.0278.0258.0555.0439.0795.0344.0457.0725.0887.109.1328.0348-.0408.0734-.079.1036-.123.0482-.0703.0859-.148.1367-.2161.0899-.1206.295-.1428.4599.0286.1854.1928.1601.5573-.0184.7669-.2487.292-.5798.4089-.931.5181-.3379.105-.678.1289-1.022.1117-.3125-.0156-.5984-.1249-.8321-.345-.0187-.0176-.0551-.0451-.0512-.0537.0831-.1855-.1034-.2793-.1433-.4229-.0715-.2577.052-.4545.206-.6173.302-.3193.7586-.084.8519.2539.0128.0463.0809.0774.1154.1084Z"></path>
    </g>
</svg>